<?xml version="1.0" encoding="utf-8"?>
<!-- Generator: Adobe Illustrator 15.1.0, SVG Export Plug-In . SVG Version: 6.00 Build 0)  -->
<!DOCTYPE svg PUBLIC "-//W3C//DTD SVG 1.1//EN" "http://www.w3.org/Graphics/SVG/1.1/DTD/svg11.dtd">
<svg version="1.1" xmlns="http://www.w3.org/2000/svg" xmlns:xlink="http://www.w3.org/1999/xlink" x="0px" y="0px"
	 width="566.929px" height="467.717px" viewBox="-83.464 -33.858 566.929 467.717"
	 enable-background="new -83.464 -33.858 566.929 467.717" xml:space="preserve">
<g id="Layer_2">
</g>
<g id="Layer_1">
	<rect x="-26.771" y="22.834" fill="#E2231A" width="453.543" height="354.332"/>
	<g>
		<g>
			<path fill="#FFFFFF" d="M357.805,181.291c5.099-1.672,9.857-4.429,9.857-9.027c0-2.423-1.082-3.426-3.51-3.426
				c-2.841,0-5.768,2.171-7.521,3.925c-2.84,2.84-5.771,6.271-8.105,10.617C350.366,183.297,354.297,182.376,357.805,181.291
				 M362.82,196.837c-3.515,4.599-9.027,8.862-15.968,8.862c-5.269,0-8.358-3.766-8.358-8.61c0-14.965,16.55-30.763,27.583-30.763
				c3.762,0,6.519,1.424,6.519,5.433c0,5.854-5.181,9.031-14.291,11.79c-2.679,0.751-8.271,2.002-11.035,2.592
				c-1.25,2.002-2.926,6.015-2.926,9.188c0,4.265,2.176,6.771,6.022,6.771c4.513,0,8.771-3.509,11.193-6.267
				C362.32,195.082,363.402,196.085,362.82,196.837 M367.168,94.194c0.411,0,0.916-0.252,0.751-0.834l-1.59-11.203
				c-0.165-0.752-0.5-1.003-0.921-1.003c-0.252,0-0.586,0.169-0.834,0.673c-0.504,0.999-1.26,1.837-2.676,1.837
				c-2.507,0-4.851-1.837-10.781-1.837c-7.776,0-18.058,3.339-18.058,14.625c0,11.282,9.028,14.964,16.802,17.805
				c8.189,3.009,14.713,5.263,14.713,13.792c0,9.526-6.685,12.618-13.04,12.618c-7.021,0-15.294-3.344-18.222-14.46
				c-0.253-0.917-0.587-1.173-1.25-1.173c-0.591,0-1.091,0.422-1.091,1.424v14.292c0,0.839,0.5,1.256,1.002,1.256
				c0.334,0,0.752-0.248,1-0.67c0.586-0.834,1.255-1.589,2.849-1.589c3.171,0,6.937,3.848,16.046,3.848
				c8.021,0,21.564-2.511,21.564-18.305c0-6.27-2.589-14.295-17.809-18.559c-10.777-3.01-14.205-7.521-14.205-13.041
				c0-4.763,2.846-9.358,10.613-9.358c3.848,0,10.113,1.086,14.295,9.276C366.58,94.107,366.828,94.194,367.168,94.194
				 M320.941,91.437c-2.173,0-4.687-1.338-4.687-4.852c0-3.76,3.014-4.929,5.269-4.929c3.179,0,5.771,2.258,5.771,6.185
				c0,4.347-3.262,9.531-9.028,9.531c-0.586,0-0.838-0.421-0.838-0.752c0-0.421,0.252-0.673,0.588-0.755
				c3.929-0.751,5.437-3.261,5.52-4.933C323.195,91.189,322.027,91.437,320.941,91.437 M330.973,171.342
				c0,2.427-0.92,5.684-3.009,9.192c-3.931,6.354-7.021,7.608-9.696,7.608c-2.259,0-3.262-1.837-3.262-4.512
				c0-2.341,1.003-5.351,2.762-8.111c2.677-4.26,6.437-7.77,9.779-7.77C329.805,167.751,330.973,168.837,330.973,171.342
				 M312.67,220.994c-9.279,0-12.037-5.35-12.037-8.023c0-2.507,1.004-4.097,3.512-5.855c1.757-1.25,4.345-2.504,6.352-3.256
				c2.258,1.004,5.685,3.01,6.771,4.013c5.014,3.51,6.017,5.517,6.017,7.272C323.282,219.908,316.18,220.994,312.67,220.994
				 M341.838,169.84c1.003,0,1.924-0.5,1.924-2.259c0-1.503-1.42-2.007-2.758-2.007c-1.506,0-3.427,0.417-5.438,1.755
				c-0.498,0.421-1.754,1.003-2.507,0.499c-1.588-1.085-3.009-1.837-6.77-1.837c-3.762,0-9.275,2.258-12.788,7.022
				c-2.506,3.509-3.01,6.019-3.01,8.528c0,2.506,1.007,4.347,1.754,5.346c0.166,0.252,0.247,0.417,0.247,0.673
				c0,0.582-0.746,0.999-2.001,1.338c-2.254,0.751-6.02,2.922-6.02,6.77c0,2.506,2.002,4.93,4.265,6.432
				c0,0-4.597,1.256-8.276,3.262c-2.845,1.588-6.02,4.012-6.02,7.521c0,4.013,3.432,10.534,17.553,10.534
				c8.275,0,13.457-3.005,15.469-5.268c1.498-1.754,1.75-3.756,1.75-5.012c0-4.517-5.013-8.779-10.525-11.785
				c-3.515-2.011-8.693-4.435-8.693-8.029c0-0.917,0.248-1.92,1.251-2.506c0.673-0.503,1.755-0.751,2.928-0.751
				c1.589,0,3.595,0.504,5.016,0.504c4.513,0,10.616-1.507,14.375-9.532c1.002-2.258,1.424-4.516,1.424-6.436
				c0-2.509-0.422-3.095-0.422-4.26c0-1.003,1.004-1.589,2.927-1.589C340.249,168.754,340.249,169.84,341.838,169.84
				 M290.184,181.291c5.183-1.672,9.945-4.429,9.945-9.027c0-2.423-1.168-3.426-3.51-3.426c-2.928,0-5.768,2.171-7.523,3.925
				c-2.924,2.84-5.769,6.271-8.191,10.617C282.827,183.297,286.672,182.376,290.184,181.291 M295.199,196.837
				c-3.514,4.599-9.027,8.862-15.881,8.862c-5.271,0-8.44-3.766-8.44-8.61c0-14.965,16.549-30.763,27.579-30.763
				c3.761,0,6.521,1.424,6.521,5.433c0,5.854-5.099,9.031-14.294,11.79c-2.594,0.751-8.277,2.002-11.035,2.592
				c-1.25,2.002-2.84,6.015-2.84,9.188c0,4.265,2.09,6.771,6.019,6.771c4.514,0,8.776-3.509,11.116-6.267
				C294.695,195.082,295.864,196.085,295.199,196.837 M270.791,155.045c0,0.247-0.083,0.751-0.33,1.251
				c-6.779,14.712-13.462,29.341-19.98,44.05c-0.334,0.755-1.002,2.257-1.002,3.261c0,1.254,0.916,2.34,2.258,2.34
				c0.664,0,1.584-0.248,2.09-0.5c3.679-1.506,7.521-5.518,9.777-8.945c0.504-0.751-0.416-1.42-1.002-0.916
				c-0.92,0.835-3.513,4.344-6.271,5.85c-0.5,0.248-1.003,0.248-0.669-0.75l20.898-46.392c0.33-0.838,0.5-1.338,0.5-1.841
				c0-0.583-0.42-0.838-1.004-0.838c-1.002,0-2.175,0.255-3.682,0.421c-1.25,0.082-3.423,0.251-5.342,0.417
				c-0.504,0-0.756,0.503-0.756,0.837c0,0.5,0.416,0.748,0.916,0.748c1.008,0,2.006,0,3.098,0.256
				C270.708,154.459,270.791,154.71,270.791,155.045 M307.484,123.032c0-5.098,3.761-5.601,7.024-5.853
				c1.252-0.165,1.498-2.171-0.256-2.171h-25.33c-1.75,0-1.75,2.257,0,2.423c5.021,0.334,9.033,1.254,9.033,6.101v9.11
				c0,2.006-1.005,3.426-2.095,4.264c-4.43,3.679-10.029,3.93-13.287,3.93c-16.047,0-23.231-13.873-23.231-27.665
				c0-11.203,5.677-28.839,24.235-28.839c16.636,0,22.648,10.783,24.66,14.878c0.668,1.256,2.254,1.004,2.254,0V85.922
				c0-1.256-1.843-1.508-2.254,0c-0.339,1.502-1.339,2.505-2.594,2.505c-1.004,0-2.176-0.751-2.672-1.09
				c-5.019-3.171-9.787-5.681-19.311-5.681c-15.381,0-34.357,7.688-34.357,31.098c0,23.565,17.805,30.84,33.352,30.84
				c15.3,0,23.323-7.773,24.825-8.776v-11.786H307.484z M252.148,155.045c0,0.247-0.082,0.751-0.33,1.251
				c-6.771,14.712-13.457,29.341-19.978,44.05c-0.338,0.755-1.007,2.257-1.007,3.261c0,1.254,0.921,2.34,2.259,2.34
				c0.668,0,1.591-0.248,2.089-0.5c3.678-1.506,7.524-5.518,9.778-8.945c0.504-0.751-0.417-1.42-1.003-0.916
				c-0.916,0.835-3.51,4.344-6.268,5.85c-0.504,0.248-1.008,0.248-0.67-0.75l20.896-46.392c0.335-0.838,0.504-1.338,0.504-1.841
				c0-0.583-0.421-0.838-1.008-0.838c-1.004,0-2.172,0.255-3.674,0.421c-1.256,0.082-3.428,0.251-5.354,0.417
				c-0.5,0-0.753,0.503-0.753,0.837c0,0.5,0.421,0.748,0.921,0.748c1.005,0,2.007,0,3.093,0.256
				C252.066,154.459,252.148,154.71,252.148,155.045 M222.395,167.582c-7.93,0-19.295,18.808-19.295,30.259
				c0,3.009,1.338,5.267,4.519,5.267c7.769,0,19.376-19.224,19.376-29.337C226.992,170.76,226.158,167.582,222.395,167.582
				 M220.723,165.241c8.023,0,9.531,7.022,9.531,13.54c0,10.365-9.531,26.918-21.049,26.918c-7.273,0-10.031-5.853-10.031-11.872
				C199.174,179.367,209.452,165.241,220.723,165.241 M180.449,81.905c-1.755,0-1.755,1.759-0.751,2.01
				c1.923,0.417,5.937,0.752,5.937,6.016c0.082,12.454,0.082,28.755-0.417,42.048c-0.088,4.763-1.512,8.771-5.603,9.274
				c-1.503,0.083-1.503,1.838-0.503,1.838h18.051c1.007,0,1.338-1.585,0.087-1.838c-2.754-0.503-7.272-0.503-7.606-9.274
				c-0.417-8.529-0.665-40.789-0.665-40.789l45.289,50.399h3.76c0,0,0-47.143,0.252-50.738c0.248-4.177,1.674-6.436,6.182-6.77
				c2.264-0.166,1.842-2.176,0.339-2.176h-18.391c-2.173,0-1.673,2.01-0.671,2.01c2.009,0.252,8.277,0.999,8.529,7.019
				c0.248,8.78,0.664,36.112,0.664,36.112L194.66,81.905H180.449z M196.667,170.257c0.495,0,0.829-0.252,0.999-0.752l4.018-12.788
				c0.248-0.751-0.086-1.255-0.756-1.255c-0.252,0-0.582,0.081-0.838,0.334c-0.752,0.751-1.669,1.507-2.424,1.507
				c-0.417,0-0.752-0.252-1.168-0.586c-3.592-4.431-9.357-5.103-12.12-5.103c-12.788,0-23.821,8.363-30.341,18.643
				c-3.93,6.101-5.936,12.788-5.936,19.393c0,10.53,7.271,16.465,16.801,16.465c4.264,0,7.521-0.502,13.288-2.926
				c1.259-0.504,2.679-1.09,3.512-1.09c1.421,0,1.507,2.094,1.673,4.016c0,0.753,0.499,1,1.003,1c0.334,0,0.751-0.166,1.004-0.747
				l5.351-15.298c0.417-1.255-0.083-1.754-0.587-1.754c-0.751,0-1.168,0.334-1.754,1.333c-2.429,3.76-4.101,6.188-12.537,10.287
				c-3.513,1.668-7.608,2.672-10.868,2.672c-7.105,0-9.863-5.434-9.863-12.286c0-9.028,4.267-18.473,10.783-26.329
				c4.182-5.184,10.535-11.034,17.969-11.034c7.109,0,12.376,5.264,11.62,15.048C195.413,169.84,195.995,170.257,196.667,170.257
				 M164.317,133.48V90.933c0-5.263,3.76-6.767,7.772-7.019c1.507,0,1.759-2.01-0.248-2.01h-25.076c-1.756,0-2.003,1.924-0.252,2.01
				c3.765,0.417,8.274,2.254,8.274,7.019v42.547c0,4.764-1.754,7.772-7.272,7.772c-2.172,0-1.672,1.838,0,1.838h24.574
				c1.256,0,1.59-1.838-0.5-1.838C166.323,141.252,164.317,137.74,164.317,133.48 M104.974,91.102c0-1.923-0.751-3.765-3.258-4.681
				c-2.094-0.751-4.018-1.004-6.105-1.338c-3.009-0.5-2.423-3.427,0.252-3.427c1.754,0,10.113,0.669,20.058,0.669
				c5.771,0,14.044-0.252,18.057-0.499c2.507-0.17,2.759,2.505,1.004,3.005c-1.754,0.503-10.031,2.506-24.826,16.05
				c-15.295,14.044-35.018,34.857-35.018,34.857s44.293,52.822,52.068,59.093c8.025,6.522,13.544,7.021,19.561,7.524
				c1.506,0.082,2.006,3.006,0,3.006h-34.604c0,0-42.881-51.819-49.902-56.587c-1.25-0.751-4.265-1.754-4.513,1.755
				c-0.252,3.261-0.503,30.762,0.248,36.776c0.755,6.019,3.262,14.794,17.557,14.794c1.756,0,2.758,3.348,0.253,3.262
				c-8.446-0.418-14.795-0.418-25.247-0.418c-9.027,0-21.647,0.418-23.401,0.418c-3.006,0-3.006-2.758-0.252-3.006
				c4.012-0.256,13.544-0.754,14.126-16.049c0.669-15.798,0.252-82.333,0-89.603c-0.082-5.016-4.347-11.79-15.377-11.79
				c-1.759,0-1.503-3.009,0.499-3.009H73.29c1.76,0,2.764,2.927-0.248,3.179c-3.009,0.251-14.46,0.587-14.795,15.881
				c-0.416,15.298-0.416,39.033-0.416,40.036c0,1.256,0.499,2.511,2.258,1.256c5.434-3.679,21.562-19.477,33.604-33.016
				c4.759-5.35,8.024-10.031,10.279-14.378C104.47,93.942,104.974,92.605,104.974,91.102"/>
			<path fill="#FFFFFF" d="M317.514,225.898c-1,0-1.256,1.758,0.086,1.758c1.504,0,4.684,0.418,4.684,5.013l-0.253,37.114
				c0,4.012-1.424,7.355-5.187,7.355c-1.25,0-1.25,1.672-0.246,1.672h15.466c0.995,0,0.995-1.672-0.173-1.672
				c-2.258,0-6.188-1.008-6.27-7.355L325.286,232c0,0,39.621,46.557,39.872,46.812h2.675l0.252-44.642
				c0-4.429,1.92-6.767,6.688-6.767c0.998,0,0.998-1.506,0-1.506h-17.308c-1.007,0-1.007,1.506,0,1.506
				c1.76,0,7.108,0.336,7.188,6.103l0.422,32.513L331.056,225.9L317.514,225.898L317.514,225.898z M269.707,251.975
				c0-13.539,6.271-23.984,17.804-23.984c10.279,0,18.052,9.945,18.052,23.984c0,17.305-7.021,24.908-18.052,24.908
				C276.725,276.883,269.707,266.521,269.707,251.975 M287.511,279.314c15.464,0,26.576-10.787,26.576-27.34
				c0-14.543-10.782-26.328-26.576-26.328c-15.386,0-26.415,12.037-26.415,26.328C261.096,267.521,271.543,279.314,287.511,279.314
				 M213.38,233.002c0-4.764,2.754-5.012,9.269-5.012c11.281,0,22.649,5.598,22.649,23.484c0,17.387-9.526,24.824-22.149,24.824
				h-2.676c-3.336,0-7.093-0.672-7.093-7.271V233.002L213.38,233.002z M200.343,225.646c-1.754,0-1.42,2.01-0.417,2.01
				c2.002,0,5.348,1.004,5.348,5.013v37.7c0,4.008-0.918,6.516-5.682,6.516c-1.173,0-1.173,1.928-0.083,1.928h25.149
				c11.029,0,29.334-5.27,29.334-27.082c0-22.065-15.047-26.082-29.59-26.082L200.343,225.646L200.343,225.646z M138.073,225.898
				c-1.003,0-1.256,1.758,0.083,1.758c1.507,0,4.681,0.418,4.681,5.013l-0.252,37.114c0,4.012-1.42,7.355-5.181,7.355
				c-1.256,0-1.256,1.672-0.253,1.672h15.465c1.003,0,1.003-1.672-0.169-1.672c-2.255,0-6.181-1.008-6.268-7.355L145.845,232
				c0,0,39.621,46.557,39.868,46.812h2.681l0.247-44.642c0-4.429,1.924-6.767,6.688-6.767c1.002,0,1.002-1.506,0-1.506h-17.301
				c-1.004,0-1.004,1.506,0,1.506c1.754,0,7.104,0.336,7.187,6.103l0.421,32.513L151.613,225.9L138.073,225.898L138.073,225.898z
				 M89.927,251.975c0-13.539,6.271-23.984,17.805-23.984c10.283,0,18.053,9.945,18.053,23.984c0,17.305-7.018,24.908-18.053,24.908
				C96.95,276.883,89.927,266.521,89.927,251.975 M107.731,279.314c15.465,0,26.58-10.787,26.58-27.34
				c0-14.543-10.781-26.328-26.58-26.328c-15.38,0-26.415,12.037-26.415,26.328C81.316,267.521,91.769,279.314,107.731,279.314
				 M367.495,307.814H30.749v7.271h336.747L367.495,307.814L367.495,307.814z M367.495,297.613H30.749v3.174h336.747
				L367.495,297.613L367.495,297.613z M29.998,225.98h21.564c1.085,0,1.42,1.76,0.086,1.76c-2.093,0-6.356,1.003-6.356,5.511v37.448
				c0,4.264,2.089,5.768,11.369,5.768c8.944,0,17.387-1.086,21.564-12.951c0.334-1.004,1.923-0.924,1.671,0.586l-2.757,14.791
				H30.749c-1.589,0-1.255-1.92-0.251-1.92c3.009,0,6.688-1.428,6.688-6.855v-35.858c0-4.596-2.671-6.519-7.188-6.519
				C28.83,227.74,28.743,225.98,29.998,225.98"/>
		</g>
	</g>
</g>
</svg>
