<?xml version="1.0" encoding="utf-8"?>
<!-- Generator: Adobe Illustrator 15.1.0, SVG Export Plug-In . SVG Version: 6.00 Build 0)  -->
<!DOCTYPE svg PUBLIC "-//W3C//DTD SVG 1.1//EN" "http://www.w3.org/Graphics/SVG/1.1/DTD/svg11.dtd">
<svg version="1.1" id="Layer_1" xmlns="http://www.w3.org/2000/svg" xmlns:xlink="http://www.w3.org/1999/xlink" x="0px" y="0px"
	 width="450px" height="550px" viewBox="58.464 0 450 550" enable-background="new 58.464 0 450 550" xml:space="preserve">
<g id="Layer_2">
</g>
<g>
	<g id="Layer_1_1_">
		<g>
			<g>
				<path d="M441.269,172.047c5.099-1.672,9.856-4.43,9.856-9.027c0-2.423-1.082-3.426-3.51-3.426c-2.841,0-5.768,2.171-7.521,3.925
					c-2.84,2.84-5.771,6.271-8.104,10.617C433.831,174.053,437.76,173.132,441.269,172.047 M446.284,187.593
					c-3.515,4.599-9.027,8.862-15.968,8.862c-5.269,0-8.358-3.766-8.358-8.61c0-14.965,16.551-30.763,27.584-30.763
					c3.762,0,6.519,1.424,6.519,5.433c0,5.854-5.181,9.031-14.291,11.79c-2.679,0.751-8.271,2.002-11.035,2.592
					c-1.25,2.002-2.926,6.015-2.926,9.188c0,4.265,2.176,6.771,6.022,6.771c4.512,0,8.771-3.509,11.192-6.267
					C445.784,185.838,446.866,186.841,446.284,187.593 M450.631,84.949c0.412,0,0.916-0.252,0.752-0.834l-1.59-11.202
					c-0.166-0.753-0.5-1.004-0.922-1.004c-0.252,0-0.586,0.17-0.834,0.674c-0.504,0.999-1.26,1.837-2.676,1.837
					c-2.507,0-4.852-1.837-10.781-1.837c-7.775,0-18.058,3.339-18.058,14.625c0,11.281,9.028,14.964,16.802,17.805
					c8.189,3.009,14.713,5.263,14.713,13.792c0,9.526-6.685,12.618-13.039,12.618c-7.021,0-15.295-3.344-18.223-14.46
					c-0.253-0.917-0.587-1.173-1.25-1.173c-0.591,0-1.091,0.422-1.091,1.424v14.292c0,0.839,0.5,1.256,1.002,1.256
					c0.334,0,0.752-0.248,1-0.67c0.586-0.834,1.255-1.589,2.849-1.589c3.172,0,6.938,3.848,16.047,3.848
					c8.021,0,21.563-2.511,21.563-18.305c0-6.271-2.589-14.295-17.81-18.56c-10.776-3.01-14.205-7.521-14.205-13.041
					c0-4.763,2.847-9.357,10.613-9.357c3.848,0,10.113,1.086,14.295,9.275C450.043,84.862,450.292,84.949,450.631,84.949
					 M404.405,82.192c-2.173,0-4.688-1.338-4.688-4.852c0-3.76,3.015-4.929,5.27-4.929c3.18,0,5.771,2.258,5.771,6.185
					c0,4.347-3.262,9.531-9.028,9.531c-0.586,0-0.839-0.421-0.839-0.752c0-0.421,0.253-0.674,0.589-0.755
					c3.929-0.752,5.437-3.262,5.521-4.934C406.659,81.944,405.491,82.192,404.405,82.192 M414.437,162.098
					c0,2.427-0.921,5.684-3.009,9.192c-3.932,6.354-7.021,7.607-9.696,7.607c-2.259,0-3.263-1.837-3.263-4.512
					c0-2.341,1.004-5.352,2.763-8.111c2.677-4.26,6.437-7.77,9.778-7.77C413.269,158.507,414.437,159.593,414.437,162.098
					 M396.133,211.75c-9.278,0-12.037-5.35-12.037-8.023c0-2.507,1.005-4.097,3.513-5.854c1.757-1.25,4.345-2.505,6.353-3.257
					c2.258,1.005,5.685,3.011,6.771,4.014c5.015,3.51,6.017,5.518,6.017,7.271C406.747,210.664,399.644,211.75,396.133,211.75
					 M425.301,160.596c1.004,0,1.925-0.5,1.925-2.259c0-1.503-1.421-2.007-2.759-2.007c-1.506,0-3.426,0.417-5.438,1.755
					c-0.498,0.421-1.754,1.003-2.507,0.499c-1.588-1.085-3.009-1.837-6.771-1.837s-9.274,2.258-12.787,7.021
					c-2.506,3.509-3.01,6.02-3.01,8.528c0,2.506,1.006,4.347,1.754,5.346c0.166,0.252,0.246,0.417,0.246,0.673
					c0,0.582-0.746,0.999-2,1.338c-2.254,0.751-6.021,2.922-6.021,6.771c0,2.506,2.002,4.93,4.265,6.432
					c0,0-4.597,1.256-8.275,3.262c-2.846,1.589-6.021,4.013-6.021,7.521c0,4.014,3.433,10.534,17.554,10.534
					c8.274,0,13.457-3.005,15.469-5.269c1.498-1.754,1.75-3.756,1.75-5.012c0-4.517-5.014-8.779-10.525-11.785
					c-3.516-2.011-8.693-4.435-8.693-8.029c0-0.917,0.248-1.92,1.252-2.506c0.672-0.503,1.754-0.751,2.928-0.751
					c1.589,0,3.595,0.504,5.016,0.504c4.514,0,10.616-1.507,14.375-9.531c1.002-2.259,1.424-4.517,1.424-6.437
					c0-2.509-0.422-3.095-0.422-4.26c0-1.003,1.004-1.589,2.928-1.589C423.713,159.51,423.713,160.596,425.301,160.596
					 M373.648,172.047c5.183-1.672,9.944-4.43,9.944-9.027c0-2.423-1.168-3.426-3.51-3.426c-2.928,0-5.768,2.171-7.522,3.925
					c-2.925,2.84-5.77,6.271-8.191,10.617C366.291,174.053,370.135,173.132,373.648,172.047 M378.663,187.593
					c-3.514,4.599-9.027,8.862-15.881,8.862c-5.271,0-8.44-3.766-8.44-8.61c0-14.965,16.55-30.763,27.579-30.763
					c3.762,0,6.521,1.424,6.521,5.433c0,5.854-5.1,9.031-14.294,11.79c-2.595,0.751-8.277,2.002-11.035,2.592
					c-1.25,2.002-2.84,6.015-2.84,9.188c0,4.265,2.09,6.771,6.019,6.771c4.514,0,8.776-3.509,11.116-6.267
					C378.159,185.838,379.329,186.841,378.663,187.593 M354.254,145.801c0,0.247-0.083,0.751-0.33,1.251
					c-6.778,14.712-13.462,29.341-19.979,44.05c-0.334,0.756-1.002,2.258-1.002,3.262c0,1.254,0.916,2.34,2.258,2.34
					c0.664,0,1.584-0.248,2.09-0.5c3.679-1.506,7.521-5.519,9.777-8.945c0.504-0.751-0.416-1.42-1.002-0.916
					c-0.92,0.835-3.514,4.344-6.271,5.85c-0.5,0.248-1.003,0.248-0.669-0.75l20.898-46.392c0.33-0.838,0.5-1.338,0.5-1.841
					c0-0.583-0.42-0.838-1.004-0.838c-1.002,0-2.176,0.255-3.683,0.421c-1.25,0.082-3.423,0.251-5.342,0.417
					c-0.504,0-0.756,0.503-0.756,0.837c0,0.5,0.416,0.748,0.916,0.748c1.008,0,2.006,0,3.098,0.256
					C354.171,145.215,354.254,145.466,354.254,145.801 M390.948,113.788c0-5.099,3.762-5.602,7.023-5.854
					c1.252-0.165,1.498-2.171-0.256-2.171h-25.33c-1.75,0-1.75,2.257,0,2.423c5.021,0.334,9.033,1.254,9.033,6.102v9.109
					c0,2.006-1.004,3.426-2.095,4.265c-4.43,3.679-10.028,3.93-13.287,3.93c-16.047,0-23.231-13.873-23.231-27.665
					c0-11.203,5.678-28.839,24.235-28.839c16.636,0,22.648,10.783,24.66,14.878c0.669,1.256,2.255,1.004,2.255,0V76.678
					c0-1.256-1.844-1.508-2.255,0c-0.339,1.502-1.339,2.505-2.594,2.505c-1.004,0-2.177-0.751-2.672-1.09
					c-5.019-3.171-9.787-5.681-19.312-5.681c-15.381,0-34.356,7.688-34.356,31.098c0,23.564,17.805,30.84,33.352,30.84
					c15.3,0,23.323-7.773,24.825-8.776v-11.785H390.948L390.948,113.788z M335.612,145.801c0,0.247-0.082,0.751-0.33,1.251
					c-6.771,14.712-13.457,29.341-19.979,44.05c-0.338,0.756-1.007,2.258-1.007,3.262c0,1.254,0.921,2.34,2.259,2.34
					c0.668,0,1.592-0.248,2.09-0.5c3.678-1.506,7.523-5.519,9.777-8.945c0.504-0.751-0.417-1.42-1.003-0.916
					c-0.916,0.835-3.51,4.344-6.268,5.85c-0.504,0.248-1.008,0.248-0.67-0.75l20.896-46.392c0.335-0.838,0.504-1.338,0.504-1.841
					c0-0.583-0.421-0.838-1.008-0.838c-1.004,0-2.172,0.255-3.674,0.421c-1.256,0.082-3.428,0.251-5.354,0.417
					c-0.5,0-0.753,0.503-0.753,0.837c0,0.5,0.421,0.748,0.921,0.748c1.006,0,2.008,0,3.094,0.256
					C335.53,145.215,335.612,145.466,335.612,145.801 M305.859,158.338c-7.931,0-19.295,18.808-19.295,30.259
					c0,3.009,1.338,5.267,4.519,5.267c7.77,0,19.376-19.224,19.376-29.337C310.456,161.516,309.622,158.338,305.859,158.338
					 M304.187,155.997c8.022,0,9.53,7.021,9.53,13.539c0,10.365-9.53,26.919-21.049,26.919c-7.272,0-10.031-5.854-10.031-11.872
					C282.637,170.123,292.916,155.997,304.187,155.997 M263.913,72.66c-1.755,0-1.755,1.76-0.751,2.011
					c1.923,0.417,5.937,0.752,5.937,6.016c0.082,12.454,0.082,28.755-0.417,42.048c-0.088,4.764-1.512,8.771-5.603,9.274
					c-1.503,0.083-1.503,1.838-0.503,1.838h18.051c1.007,0,1.338-1.585,0.087-1.838c-2.754-0.503-7.271-0.503-7.605-9.274
					c-0.417-8.528-0.665-40.789-0.665-40.789l45.289,50.399h3.76c0,0,0-47.144,0.252-50.738c0.248-4.177,1.674-6.436,6.182-6.77
					c2.265-0.166,1.843-2.177,0.339-2.177h-18.391c-2.173,0-1.673,2.011-0.671,2.011c2.009,0.252,8.277,0.999,8.529,7.019
					c0.248,8.78,0.664,36.112,0.664,36.112L278.124,72.66H263.913z M280.13,161.013c0.495,0,0.829-0.252,0.999-0.752l4.019-12.788
					c0.248-0.751-0.086-1.255-0.756-1.255c-0.253,0-0.582,0.081-0.839,0.334c-0.752,0.751-1.669,1.507-2.424,1.507
					c-0.417,0-0.752-0.252-1.168-0.586c-3.592-4.431-9.356-5.103-12.12-5.103c-12.788,0-23.82,8.362-30.341,18.643
					c-3.93,6.101-5.936,12.788-5.936,19.393c0,10.53,7.271,16.466,16.801,16.466c4.264,0,7.521-0.502,13.288-2.926
					c1.259-0.504,2.679-1.09,3.512-1.09c1.421,0,1.507,2.094,1.673,4.016c0,0.753,0.499,1,1.003,1c0.334,0,0.751-0.166,1.004-0.747
					l5.352-15.299c0.417-1.255-0.083-1.754-0.587-1.754c-0.751,0-1.168,0.334-1.754,1.333c-2.43,3.761-4.102,6.188-12.537,10.287
					c-3.514,1.668-7.608,2.672-10.868,2.672c-7.105,0-9.863-5.434-9.863-12.285c0-9.028,4.268-18.474,10.783-26.329
					c4.182-5.185,10.535-11.034,17.969-11.034c7.109,0,12.376,5.264,11.62,15.048C278.876,160.596,279.458,161.013,280.13,161.013
					 M247.781,124.235V81.688c0-5.263,3.76-6.767,7.771-7.019c1.508,0,1.76-2.011-0.248-2.011h-25.075
					c-1.757,0-2.003,1.925-0.252,2.011c3.765,0.417,8.273,2.254,8.273,7.019v42.547c0,4.765-1.754,7.772-7.271,7.772
					c-2.173,0-1.673,1.838,0,1.838h24.573c1.257,0,1.591-1.838-0.5-1.838C249.787,132.008,247.781,128.496,247.781,124.235
					 M188.438,81.857c0-1.923-0.751-3.765-3.259-4.681c-2.094-0.751-4.018-1.004-6.104-1.338c-3.009-0.5-2.423-3.427,0.252-3.427
					c1.754,0,10.113,0.669,20.058,0.669c5.771,0,14.044-0.252,18.058-0.499c2.507-0.17,2.759,2.505,1.004,3.005
					c-1.754,0.503-10.031,2.506-24.826,16.05c-15.295,14.044-35.018,34.856-35.018,34.856s44.293,52.822,52.067,59.094
					c8.025,6.522,13.544,7.021,19.562,7.524c1.506,0.082,2.006,3.006,0,3.006h-34.604c0,0-42.881-51.819-49.902-56.588
					c-1.25-0.751-4.265-1.754-4.513,1.755c-0.252,3.262-0.503,30.763,0.248,36.776c0.755,6.02,3.262,14.795,17.557,14.795
					c1.757,0,2.759,3.348,0.254,3.262c-8.446-0.418-14.796-0.418-25.247-0.418c-9.027,0-21.647,0.418-23.401,0.418
					c-3.006,0-3.006-2.758-0.252-3.006c4.012-0.256,13.544-0.754,14.126-16.05c0.669-15.798,0.252-82.333,0-89.603
					c-0.082-5.017-4.347-11.79-15.377-11.79c-1.759,0-1.503-3.01,0.499-3.01h47.136c1.76,0,2.765,2.928-0.248,3.18
					c-3.009,0.251-14.46,0.587-14.795,15.881c-0.416,15.298-0.416,39.033-0.416,40.036c0,1.256,0.499,2.511,2.258,1.256
					c5.435-3.679,21.562-19.478,33.604-33.016c4.759-5.351,8.023-10.031,10.279-14.379C187.934,84.697,188.438,83.36,188.438,81.857
					"/>
				<path d="M400.978,216.654c-1,0-1.257,1.758,0.086,1.758c1.504,0,4.685,0.418,4.685,5.013l-0.254,37.114
					c0,4.012-1.424,7.354-5.188,7.354c-1.25,0-1.25,1.672-0.245,1.672h15.466c0.995,0,0.995-1.672-0.173-1.672
					c-2.259,0-6.188-1.008-6.271-7.354l-0.334-37.783c0,0,39.621,46.558,39.871,46.812h2.676l0.252-44.642
					c0-4.429,1.92-6.768,6.688-6.768c0.998,0,0.998-1.506,0-1.506h-17.309c-1.006,0-1.006,1.506,0,1.506
					c1.761,0,7.109,0.337,7.188,6.104l0.423,32.513l-34.02-40.118L400.978,216.654L400.978,216.654z M353.17,242.731
					c0-13.539,6.271-23.984,17.805-23.984c10.279,0,18.052,9.945,18.052,23.984c0,17.305-7.021,24.907-18.052,24.907
					C360.189,267.639,353.17,257.276,353.17,242.731 M370.975,270.069c15.464,0,26.576-10.787,26.576-27.34
					c0-14.543-10.782-26.327-26.576-26.327c-15.387,0-26.415,12.036-26.415,26.327C344.56,258.276,355.006,270.069,370.975,270.069
					 M296.843,223.758c0-4.764,2.754-5.012,9.27-5.012c11.281,0,22.648,5.598,22.648,23.483c0,17.387-9.525,24.824-22.148,24.824
					h-2.676c-3.336,0-7.094-0.672-7.094-7.271V223.758L296.843,223.758z M283.806,216.402c-1.754,0-1.42,2.01-0.417,2.01
					c2.003,0,5.349,1.004,5.349,5.013v37.7c0,4.008-0.918,6.516-5.683,6.516c-1.173,0-1.173,1.929-0.083,1.929h25.149
					c11.029,0,29.334-5.271,29.334-27.082c0-22.065-15.047-26.083-29.59-26.083L283.806,216.402L283.806,216.402z M221.537,216.654
					c-1.003,0-1.256,1.758,0.083,1.758c1.507,0,4.681,0.418,4.681,5.013l-0.252,37.114c0,4.012-1.42,7.354-5.181,7.354
					c-1.256,0-1.256,1.672-0.253,1.672h15.465c1.003,0,1.003-1.672-0.169-1.672c-2.255,0-6.181-1.008-6.268-7.354l-0.334-37.783
					c0,0,39.62,46.558,39.867,46.812h2.682l0.247-44.642c0-4.429,1.924-6.768,6.688-6.768c1.002,0,1.002-1.506,0-1.506h-17.301
					c-1.004,0-1.004,1.506,0,1.506c1.754,0,7.104,0.337,7.187,6.104l0.422,32.513l-34.023-40.118L221.537,216.654L221.537,216.654z
					 M173.39,242.731c0-13.539,6.271-23.984,17.806-23.984c10.283,0,18.053,9.945,18.053,23.984
					c0,17.305-7.018,24.907-18.053,24.907C180.414,267.639,173.39,257.276,173.39,242.731 M191.195,270.069
					c15.465,0,26.58-10.787,26.58-27.34c0-14.543-10.781-26.327-26.58-26.327c-15.38,0-26.415,12.036-26.415,26.327
					C164.78,258.276,175.233,270.069,191.195,270.069 M450.959,298.57H114.212v7.271h336.747V298.57L450.959,298.57z
					 M450.959,288.368H114.212v3.175h336.747V288.368L450.959,288.368z M113.461,216.736h21.564c1.085,0,1.42,1.76,0.086,1.76
					c-2.093,0-6.356,1.003-6.356,5.511v37.448c0,4.264,2.089,5.768,11.369,5.768c8.944,0,17.387-1.086,21.564-12.95
					c0.334-1.004,1.923-0.925,1.671,0.586l-2.757,14.791h-46.391c-1.589,0-1.255-1.92-0.251-1.92c3.009,0,6.688-1.429,6.688-6.855
					v-35.858c0-4.596-2.671-6.519-7.188-6.519C112.293,218.496,112.207,216.736,113.461,216.736"/>
			</g>
		</g>
	</g>
	<g>
		<path d="M124.476,376.041v9.273h9.995v7.829h-9.995v17.047h-9.44v-42.645h20.711v8.495H124.476z"/>
		<path d="M157.624,410.856c-4.442,0-4.997-1.721-5.608-4.108l-0.5,0.999c-0.722,1.444-2.887,3.109-6.441,3.109
			c-6.164,0-8.385-4.83-8.385-9.605c0-5.331,2.443-8.44,7.94-9.606l3.332-0.722c3.387-0.722,4.054-1.555,4.054-4.221
			c0-2.998-1.222-4.108-3.499-4.108c-2.11,0-3.775,1.333-3.775,3.276c0,1.11,0.167,1.832,0.444,2.721l-7.33,0.166
			c-0.277-1.276-0.444-1.888-0.444-3.442c0-5.72,5.053-7.996,11.216-7.996c8.884,0,12.049,2.943,12.049,7.163v18.546
			c0,1.166,0.944,1.832,2.054,1.832c0.278,0,0.5-0.055,0.778-0.166v4.498C162.677,409.802,159.845,410.856,157.624,410.856z
			 M152.016,394.365c-0.777,0.444-1.833,0.833-2.666,1.055c-3.165,0.889-3.887,1.999-3.887,4.831c0,2.776,0.667,4.387,2.776,4.387
			c2.054,0,3.776-0.777,3.776-7.052V394.365z"/>
		<path d="M178,410.856c-8.162,0-12.827-3.275-12.827-15.437c0-13.826,5.22-18.102,12.549-18.102c8.162,0,10.328,4.72,10.328,10.384
			c0,1.055-0.055,1.943-0.167,2.665l-7.496,0.223c0.111-0.5,0.167-1.056,0.167-1.889c0-2.942-0.944-4.664-2.943-4.664
			c-2.832,0-3.498,2.055-3.498,9.551c0,8.773,0.777,10.384,3.609,10.384c2.832,0,3.165-3.609,3.165-6.33
			c0-0.777-0.056-1.389-0.222-1.833l7.607,0.389c0.222,1.056,0.389,2.555,0.389,4.276C188.661,405.249,186.329,410.856,178,410.856z
			"/>
		<path d="M205.928,410.19v-5.164c-1,3.609-3.554,5.774-7.274,5.774c-3.609,0-6.997-2.332-6.997-7.496v-24.986h8.773v22.544
			c0,1.443,0.555,2.332,2.054,2.332c2.055,0,3.387-2.222,3.387-6.719v-18.157h8.773v31.872H205.928z"/>
		<path d="M218.864,410.19v-42.645h8.773v42.645H218.864z"/>
		<path d="M241.852,410.635c-4.553,0-7.552-1.666-7.496-6.663l0.111-19.656h-4.72v-5.997h4.831l0.222-8.773h8.329v8.773h6.663v5.997
			h-6.663v16.103c0,2.498,2.221,2.776,3.942,2.776c1.388,0,2.332-0.278,3.221-0.667v6.275
			C249.181,409.58,245.239,410.635,241.852,410.635z"/>
		<path d="M269.225,410.468c-1.388,5.22-2.61,9.718-9.884,9.718c-6.164,0-7.718-2.721-7.718-6.774c0-0.777,0.111-1.389,0.222-2.222
			h5.497c-0.111,0.667-0.222,1.444-0.222,2.166c0,1.11,0.611,1.832,2.166,1.832c1.943,0,2.554-1.665,2.554-4.164
			c0-0.889-0.333-2.11-0.722-3.276l-9.717-29.429h9.772l4.442,18.712l3.609-18.712h8.384L269.225,410.468z"/>
		<path d="M304.871,410.69c-8.885,0-12.05-4.72-12.05-15.937c0-11.938,3.887-17.436,11.605-17.436
			c9.217,0,11.883,5.72,11.883,16.714C316.309,404.859,314.143,410.69,304.871,410.69z M304.538,383.927
			c-2.333,0-2.666,2.054-2.666,10.605c0,8.162,0.777,8.995,2.666,8.995c1.998,0,2.721-0.889,2.721-8.995
			C307.258,385.925,306.814,383.927,304.538,383.927z"/>
		<path d="M338.129,376.097l-5.109-0.222c0.111-0.611,0.167-1.166,0.167-1.999c0-1.11-0.277-2.055-1.499-2.055
			c-1.11,0-1.666,0.889-1.666,3.831c0,0.944,0.056,1.833,0.111,2.666h7.219v5.997h-6.941v25.875h-8.773v-25.875h-4.22v-5.997h4.22
			c0-1.499,0-1.943,0-3.221c0-5.053,3.498-8.218,9.218-8.218c5.774,0,7.773,2.165,7.773,6.107
			C338.628,374.153,338.407,375.209,338.129,376.097z"/>
		<path d="M368.444,410.19l-1.222-7.385h-6.274l-1.11,7.385h-7.996l8.162-42.645h9.439l9.052,42.645H368.444z M363.668,383.427
			l-1.888,13.438h4.442L363.668,383.427z"/>
		<path d="M402.48,392.533l-7.496,1.388c0.166-1.11,0.277-2.443,0.277-4.108c0-2.943-0.833-3.942-2.332-3.942
			c-2.332,0-2.943,3.942-2.943,8.329v15.991h-8.772v-31.872h8.606c0,0,0.111,3.831,0.111,5.774l0.389-1.11
			c0.943-2.721,2.998-5.275,5.996-5.275c4.498,0,6.608,2.61,6.608,8.218C402.924,388.812,402.702,391.034,402.48,392.533z"/>
		<path d="M416.192,410.635c-4.553,0-7.552-1.666-7.496-6.663l0.111-19.656h-4.72v-5.997h4.831l0.222-8.773h8.329v8.773h6.663v5.997
			h-6.663v16.103c0,2.498,2.221,2.776,3.942,2.776c1.389,0,2.332-0.278,3.221-0.667v6.275
			C423.522,409.58,419.58,410.635,416.192,410.635z"/>
		<path d="M437.846,410.746c-7.829,0-11.105-2.832-11.105-8.052c0-1.388,0.278-2.776,0.667-3.942l6.719,0.444
			c-0.167,0.777-0.223,1.388-0.223,2.055c0,2.332,1,3.664,3.332,3.664c2.665,0,3.221-2.109,3.221-3.331
			c0-1.666-0.889-2.61-3.276-3.721l-3.442-1.61c-2.776-1.276-6.886-3.664-6.886-9.551c0-6.052,5.164-9.384,11.217-9.384
			c5.83,0,10.383,2.443,10.383,7.885c0,1.166-0.166,1.999-0.499,2.888l-6.608-0.111c0.223-0.666,0.278-1.166,0.278-2.221
			c0-1.777-1.166-2.721-2.999-2.721c-1.888,0-2.776,1.166-2.776,2.832c0,1.832,1.333,2.665,3.499,3.608l4.275,1.833
			c3.609,1.555,6.386,3.72,6.386,9.272C450.007,407.303,446.842,410.746,437.846,410.746z"/>
		<path d="M139.134,477.708c-3.887,0-5.441-0.944-7.274-3.609c-2.943,3.054-5.386,3.609-8.218,3.609
			c-7.607,0-10.162-5.886-10.162-12.327s2.776-10.883,8.329-14.825l0.944-0.667c-0.722-1.666-1.388-3.665-1.388-7.163
			c0-5.774,4.165-9.217,9.162-9.217c4.942,0,8.551,3.609,8.551,8.329c0,3.942-1.277,6.607-7.052,8.662l3.387,8.551
			c0.833-1.388,1.277-2.443,1.888-3.998c0.61-1.61,1.443-4.331,1.832-5.997h5.22c-0.777,3.276-1.833,6.886-3.165,9.995
			c-1.166,2.665-1.943,4.109-3.332,6.719l0.611,1.722c0.444,1.332,1.277,2.942,2.443,2.942c1.222,0,1.388-1.61,1.388-2.554
			c0-1.222-0.167-3.609-0.389-4.609h4.72c0.444,1.61,0.556,4.054,0.556,5.72C147.186,476.652,143.521,477.708,139.134,477.708z
			 M124.42,455.719c-1.444,1.777-2.11,3.832-2.11,6.108c0,3.609,1.221,7.773,4.164,7.773c1.166,0,2.277-0.722,2.943-1.555
			L124.42,455.719z M131.194,438.728c-1.221,0-1.999,0.444-1.999,2.499c0,1.389,0.777,3.554,1.333,4.554
			c1-0.444,2.721-1.777,2.721-4.276C133.249,439.783,132.582,438.728,131.194,438.728z"/>
		<path d="M179.722,476.819v-19.656h-5.608v19.656h-9.44v-42.645h9.44V450h5.608v-15.825h9.439v42.645H179.722z"/>
		<path d="M207.872,476.819v-5.164c-1,3.609-3.554,5.774-7.274,5.774c-3.609,0-6.997-2.332-6.997-7.496v-24.986h8.773v22.544
			c0,1.443,0.555,2.332,2.054,2.332c2.055,0,3.387-2.222,3.387-6.719v-18.157h8.773v31.872H207.872z"/>
		<path d="M249.237,476.819v-22.6c0-1.443-0.555-2.332-2.054-2.332c-2.055,0-3.387,2.61-3.387,6.719v18.213h-8.718v-22.6
			c0-1.443-0.555-2.332-2.055-2.332c-2.054,0-3.442,2.276-3.442,6.719c0,0,0.056,18.046,0,18.213h-8.773v-31.872h8.718v5.219
			c1-3.608,3.609-5.83,7.33-5.83c3.609,0,6.386,1.943,6.885,5.83c1-3.608,3.554-5.83,7.274-5.83c3.609,0,6.997,2.332,6.997,7.496
			v24.987H249.237z"/>
		<path d="M281.996,477.485c-4.442,0-4.997-1.721-5.608-4.108l-0.5,0.999c-0.722,1.444-2.887,3.109-6.441,3.109
			c-6.164,0-8.385-4.83-8.385-9.605c0-5.331,2.443-8.44,7.94-9.606l3.332-0.722c3.387-0.722,4.054-1.555,4.054-4.221
			c0-2.998-1.222-4.108-3.499-4.108c-2.11,0-3.775,1.333-3.775,3.276c0,1.11,0.167,1.832,0.444,2.721l-7.33,0.166
			c-0.277-1.276-0.444-1.888-0.444-3.442c0-5.72,5.053-7.996,11.216-7.996c8.884,0,12.049,2.943,12.049,7.163v18.546
			c0,1.166,0.944,1.832,2.055,1.832c0.278,0,0.5-0.055,0.777-0.166v4.498C287.048,476.431,284.217,477.485,281.996,477.485z
			 M276.388,460.994c-0.777,0.444-1.833,0.833-2.666,1.055c-3.165,0.889-3.887,1.999-3.887,4.831c0,2.776,0.667,4.387,2.776,4.387
			c2.054,0,3.776-0.777,3.776-7.052V460.994z"/>
		<path d="M304.76,476.819v-22.544c0-1.443-0.556-2.332-2.055-2.332c-2.055,0-3.388,2.609-3.388,6.719v18.157h-8.772v-31.872h8.718
			v5.164c0.999-3.609,3.554-5.775,7.273-5.775c3.609,0,6.996,2.332,6.996,7.496v24.987H304.76z"/>
		<path d="M317.585,442.171v-7.996h8.772v7.996H317.585z M317.585,476.819v-31.872h8.772v31.872H317.585z"/>
		<path d="M340.572,477.264c-4.553,0-7.552-1.666-7.496-6.663l0.111-19.656h-4.72v-5.997h4.831l0.222-8.773h8.329v8.773h6.663v5.997
			h-6.663v16.103c0,2.498,2.221,2.776,3.942,2.776c1.389,0,2.332-0.278,3.221-0.667v6.275
			C347.902,476.209,343.959,477.264,340.572,477.264z"/>
		<path d="M352.232,442.171v-7.996h8.772v7.996H352.232z M352.232,476.819v-31.872h8.772v31.872H352.232z"/>
		<path d="M373.053,462.604c-0.056,7.052,1.166,8.052,3.72,8.052c2.388,0,3.221-1.666,2.999-4.387l-0.111-1.277l7.607,0.222
			c0.111,0.611,0.166,1.444,0.166,2.388c0,5.497-2.721,9.884-10.55,9.884c-7.662,0-12.66-2.832-12.66-16.158
			c0-12.271,4.221-17.38,11.938-17.38c6.94,0,10.161,4.664,10.938,12.66c0.223,2.222,0.333,4.165,0.389,6.108L373.053,462.604z
			 M376.163,450.333c-2.332,0-2.943,2.665-3.109,7.773h5.886C378.606,451.943,378.439,450.333,376.163,450.333z"/>
		<path d="M400.87,477.375c-7.829,0-11.105-2.832-11.105-8.052c0-1.388,0.278-2.776,0.667-3.942l6.719,0.444
			c-0.167,0.777-0.223,1.388-0.223,2.055c0,2.332,1,3.664,3.332,3.664c2.665,0,3.221-2.109,3.221-3.331
			c0-1.666-0.889-2.61-3.276-3.721l-3.442-1.61c-2.776-1.276-6.886-3.664-6.886-9.551c0-6.052,5.164-9.384,11.217-9.384
			c5.83,0,10.383,2.443,10.383,7.885c0,1.166-0.166,1.999-0.499,2.888l-6.608-0.111c0.223-0.666,0.278-1.166,0.278-2.221
			c0-1.777-1.166-2.721-2.999-2.721c-1.888,0-2.776,1.166-2.776,2.832c0,1.832,1.333,2.665,3.499,3.608l4.275,1.833
			c3.609,1.555,6.386,3.72,6.386,9.272C413.031,473.932,409.866,477.375,400.87,477.375z"/>
	</g>
</g>
</svg>
