<?xml version="1.0" encoding="utf-8"?>
<!-- Generator: Adobe Illustrator 15.1.0, SVG Export Plug-In . SVG Version: 6.00 Build 0)  -->
<!DOCTYPE svg PUBLIC "-//W3C//DTD SVG 1.1//EN" "http://www.w3.org/Graphics/SVG/1.1/DTD/svg11.dtd">
<svg version="1.1" id="Layer_1" xmlns="http://www.w3.org/2000/svg" xmlns:xlink="http://www.w3.org/1999/xlink" x="0px" y="0px"
	 width="177px" height="75px" viewBox="0 0 177 75" enable-background="new 0 0 177 75" xml:space="preserve">
<g>
	<g>
		<g>
			<path d="M0.97,34.705V21.649h1.394v11.883h4.794v1.172H0.97z"/>
			<path d="M19.925,28.177c0,2.301-0.374,3.998-1.122,5.091s-1.972,1.641-3.672,1.641c-0.828,0-1.542-0.128-2.142-0.383
				c-0.601-0.255-1.097-0.655-1.487-1.199c-0.391-0.544-0.683-1.241-0.875-2.091c-0.193-0.85-0.289-1.87-0.289-3.06
				c0-2.323,0.419-4.026,1.258-5.109c0.839-1.082,2.017-1.623,3.536-1.623c1.53,0,2.711,0.547,3.544,1.64
				C19.509,24.179,19.925,25.876,19.925,28.177z M18.497,28.177c0-1.898-0.283-3.299-0.85-4.203
				c-0.567-0.904-1.406-1.356-2.516-1.356c-1.077,0-1.907,0.446-2.491,1.339s-0.875,2.299-0.875,4.22
				c0,0.994,0.065,1.845,0.196,2.551c0.13,0.706,0.332,1.282,0.604,1.729s0.62,0.771,1.045,0.975
				c0.425,0.204,0.932,0.305,1.521,0.305c0.634,0,1.165-0.11,1.589-0.33c0.425-0.22,0.771-0.559,1.037-1.017
				c0.266-0.458,0.456-1.037,0.569-1.737C18.44,29.951,18.497,29.126,18.497,28.177z"/>
			<path d="M30.618,34.705l-5.253-10.981v10.981h-1.258V21.649h1.785l5.253,10.982V21.649h1.258v13.056H30.618z"/>
			<path d="M45.714,28.415c0,1.122-0.1,2.083-0.297,2.881c-0.199,0.799-0.521,1.451-0.969,1.955
				c-0.448,0.504-1.034,0.873-1.759,1.105c-0.726,0.233-1.615,0.348-2.669,0.348h-3.145V21.649h3.808
				c0.737,0,1.414,0.133,2.032,0.399c0.618,0.267,1.147,0.678,1.589,1.233s0.788,1.258,1.037,2.108
				C45.589,26.239,45.714,27.248,45.714,28.415z M44.32,28.415c0-1.836-0.334-3.219-1.003-4.148
				c-0.669-0.929-1.706-1.394-3.111-1.394h-1.938v10.608h1.666c0.759,0,1.417-0.079,1.972-0.238s1.012-0.431,1.369-0.816
				s0.621-0.904,0.791-1.556C44.235,30.22,44.32,29.401,44.32,28.415z"/>
			<path d="M59.212,28.177c0,2.301-0.374,3.998-1.122,5.091s-1.972,1.641-3.672,1.641c-0.828,0-1.542-0.128-2.142-0.383
				c-0.601-0.255-1.097-0.655-1.487-1.199c-0.391-0.544-0.683-1.241-0.875-2.091c-0.193-0.85-0.289-1.87-0.289-3.06
				c0-2.323,0.419-4.026,1.258-5.109c0.839-1.082,2.017-1.623,3.536-1.623c1.53,0,2.711,0.547,3.544,1.64
				C58.795,24.179,59.212,25.876,59.212,28.177z M57.784,28.177c0-1.898-0.283-3.299-0.85-4.203
				c-0.567-0.904-1.406-1.356-2.516-1.356c-1.077,0-1.907,0.446-2.491,1.339s-0.875,2.299-0.875,4.22
				c0,0.994,0.065,1.845,0.196,2.551c0.13,0.706,0.332,1.282,0.604,1.729s0.62,0.771,1.045,0.975
				c0.425,0.204,0.932,0.305,1.521,0.305c0.634,0,1.165-0.11,1.589-0.33c0.425-0.22,0.771-0.559,1.037-1.017
				c0.266-0.458,0.456-1.037,0.569-1.737C57.727,29.951,57.784,29.126,57.784,28.177z"/>
			<path d="M69.904,34.705l-5.253-10.981v10.981h-1.258V21.649h1.785l5.253,10.982V21.649h1.258v13.056H69.904z"/>
			<path d="M8.263,50.744c0,0.612-0.071,1.174-0.213,1.684s-0.374,0.949-0.697,1.317s-0.748,0.654-1.275,0.858
				S4.903,54.91,4.132,54.91c-0.691,0-1.286-0.08-1.785-0.238C1.848,54.514,1.443,54.289,1.131,54s-0.541-0.637-0.688-1.045
				s-0.221-0.861-0.221-1.36c0-0.261,0.017-0.53,0.051-0.808c0.034-0.277,0.091-0.523,0.17-0.74l2.499-0.084
				c-0.057,0.158-0.099,0.354-0.127,0.586S2.772,51,2.772,51.203c0,0.408,0.107,0.734,0.323,0.979
				c0.215,0.243,0.521,0.365,0.918,0.365c0.374,0,0.68-0.1,0.918-0.298c0.238-0.198,0.357-0.541,0.357-1.028
				c0-0.453-0.13-0.816-0.391-1.088c-0.261-0.272-0.629-0.55-1.105-0.833l-1.547-0.919c-0.544-0.316-0.998-0.756-1.36-1.316
				c-0.363-0.562-0.544-1.21-0.544-1.947c0-0.532,0.085-1.022,0.255-1.471c0.17-0.447,0.425-0.835,0.765-1.164
				c0.34-0.328,0.765-0.584,1.275-0.765c0.51-0.181,1.099-0.272,1.768-0.272c0.578,0,1.074,0.076,1.488,0.23
				c0.414,0.152,0.75,0.367,1.011,0.646s0.451,0.608,0.57,0.994c0.119,0.386,0.178,0.811,0.178,1.274
				c0,0.228-0.014,0.439-0.042,0.639c-0.028,0.197-0.065,0.371-0.11,0.518l-2.465,0.068c0.045-0.09,0.087-0.213,0.127-0.365
				c0.04-0.153,0.06-0.326,0.06-0.519c0-0.431-0.085-0.733-0.255-0.909c-0.17-0.176-0.408-0.264-0.714-0.264
				c-0.272,0-0.499,0.091-0.68,0.271c-0.181,0.182-0.272,0.477-0.272,0.885c0,0.215,0.051,0.414,0.153,0.595
				s0.232,0.346,0.391,0.493c0.159,0.146,0.343,0.277,0.553,0.391c0.209,0.113,0.417,0.221,0.621,0.322l1.105,0.545
				c0.703,0.34,1.235,0.791,1.598,1.352C8.082,49.172,8.263,49.883,8.263,50.744z"/>
			<path d="M16.304,54.705v-6.018h-1.717v6.018h-2.89V41.649h2.89v4.845h1.717v-4.845h2.89v13.056H16.304z"/>
			<path d="M27.524,54.705l-0.374-2.261h-1.921l-0.34,2.261h-2.448l2.499-13.056h2.89l2.771,13.056H27.524z M26.062,46.512
				l-0.578,4.113h1.36L26.062,46.512z"/>
			<path d="M38.829,54.705L36.805,49.3v5.405h-2.89V41.649h2.89v4.794l1.955-4.794h2.941l-2.516,5.798l2.907,7.258H38.829z"/>
			<path d="M45.136,54.705V41.649h6.511v2.466h-3.621v2.719h3.23v2.397h-3.23v2.976h3.961v2.498H45.136z"/>
			<path d="M63.002,50.744c0,0.612-0.071,1.174-0.213,1.684s-0.374,0.949-0.697,1.317s-0.748,0.654-1.275,0.858
				s-1.176,0.307-1.947,0.307c-0.691,0-1.286-0.08-1.785-0.238c-0.499-0.158-0.904-0.383-1.216-0.672s-0.541-0.637-0.688-1.045
				s-0.221-0.861-0.221-1.36c0-0.261,0.017-0.53,0.051-0.808c0.034-0.277,0.091-0.523,0.17-0.74l2.499-0.084
				c-0.057,0.158-0.099,0.354-0.127,0.586S57.511,51,57.511,51.203c0,0.408,0.107,0.734,0.323,0.979
				c0.215,0.243,0.521,0.365,0.918,0.365c0.374,0,0.68-0.1,0.918-0.298c0.238-0.198,0.357-0.541,0.357-1.028
				c0-0.453-0.13-0.816-0.391-1.088c-0.261-0.272-0.629-0.55-1.105-0.833l-1.547-0.919c-0.544-0.316-0.998-0.756-1.36-1.316
				c-0.363-0.562-0.544-1.21-0.544-1.947c0-0.532,0.085-1.022,0.255-1.471c0.17-0.447,0.425-0.835,0.765-1.164
				c0.34-0.328,0.765-0.584,1.275-0.765c0.51-0.181,1.099-0.272,1.768-0.272c0.578,0,1.074,0.076,1.488,0.23
				c0.414,0.152,0.75,0.367,1.011,0.646s0.451,0.608,0.57,0.994c0.119,0.386,0.178,0.811,0.178,1.274
				c0,0.228-0.014,0.439-0.042,0.639c-0.028,0.197-0.065,0.371-0.11,0.518l-2.465,0.068c0.045-0.09,0.087-0.213,0.127-0.365
				c0.04-0.153,0.06-0.326,0.06-0.519c0-0.431-0.085-0.733-0.255-0.909c-0.17-0.176-0.408-0.264-0.714-0.264
				c-0.272,0-0.499,0.091-0.68,0.271c-0.181,0.182-0.272,0.477-0.272,0.885c0,0.215,0.051,0.414,0.153,0.595
				s0.232,0.346,0.391,0.493c0.159,0.146,0.343,0.277,0.553,0.391c0.209,0.113,0.417,0.221,0.621,0.322l1.105,0.545
				c0.703,0.34,1.235,0.791,1.598,1.352C62.821,49.172,63.002,49.883,63.002,50.744z"/>
			<path d="M73.78,46.002c0,0.805-0.076,1.467-0.229,1.988c-0.153,0.521-0.374,0.936-0.663,1.241
				c-0.289,0.306-0.646,0.519-1.071,0.638s-0.91,0.178-1.454,0.178h-1.105v4.658h-2.822V41.649h3.536c0.578,0,1.1,0.068,1.564,0.204
				c0.464,0.137,0.864,0.371,1.198,0.705c0.334,0.335,0.592,0.779,0.773,1.335S73.78,45.151,73.78,46.002z M70.924,45.865
				c0-0.385-0.02-0.702-0.06-0.951c-0.04-0.25-0.105-0.448-0.195-0.596c-0.091-0.146-0.204-0.252-0.34-0.314
				c-0.136-0.062-0.306-0.094-0.51-0.094h-0.561v3.825h0.578c0.385,0,0.663-0.147,0.833-0.442
				C70.839,46.999,70.924,46.523,70.924,45.865z"/>
			<path d="M77.231,54.705V41.649h6.511v2.466h-3.621v2.719h3.23v2.397h-3.23v2.976h3.961v2.498H77.231z"/>
			<path d="M91.952,54.705l-0.374-2.261h-1.921l-0.341,2.261H86.87l2.499-13.056h2.89l2.771,13.056H91.952z M90.49,46.512
				l-0.578,4.113h1.359L90.49,46.512z"/>
			<path d="M105.773,45.679c0,0.532-0.046,0.983-0.137,1.352c-0.09,0.368-0.221,0.671-0.391,0.909s-0.377,0.422-0.621,0.553
				c-0.243,0.131-0.512,0.229-0.807,0.297c0.283,0.068,0.527,0.174,0.73,0.314c0.204,0.143,0.375,0.332,0.51,0.57
				c0.137,0.238,0.244,0.538,0.324,0.9c0.078,0.363,0.129,0.799,0.152,1.31c0.012,0.261,0.02,0.513,0.025,0.757
				c0.006,0.243,0.009,0.444,0.009,0.604c0,0.135,0.009,0.283,0.025,0.441s0.036,0.307,0.06,0.441
				c0.022,0.137,0.043,0.258,0.059,0.366c0.018,0.108,0.031,0.179,0.043,0.212h-2.957c-0.08-0.203-0.143-0.43-0.188-0.68
				c-0.045-0.249-0.068-0.521-0.068-0.816c0-0.102,0-0.243,0-0.424c0-0.182,0-0.377,0-0.587s-0.003-0.423-0.008-0.638
				c-0.006-0.215-0.01-0.402-0.01-0.561c0-0.205-0.011-0.395-0.033-0.57c-0.023-0.176-0.065-0.325-0.127-0.45
				c-0.062-0.124-0.148-0.224-0.256-0.298c-0.107-0.073-0.258-0.109-0.45-0.109h-0.425v5.133h-2.891V41.649h4.268
				c1.133,0,1.943,0.341,2.431,1.021S105.773,44.353,105.773,45.679z M102.883,45.695c0-0.736-0.088-1.232-0.264-1.487
				s-0.422-0.382-0.739-0.382h-0.646v3.739h0.68c0.385,0,0.643-0.147,0.773-0.442C102.818,46.829,102.883,46.354,102.883,45.695z"/>
			<path d="M109.377,54.705V41.649h6.512v2.466h-3.622v2.719h3.23v2.397h-3.23v2.976h3.961v2.498H109.377z"/>
			<path d="M9.257,72.249c-0.153,0.584-0.385,1.072-0.697,1.467c-0.312,0.394-0.714,0.691-1.207,0.893s-1.097,0.301-1.811,0.301
				c-0.782,0-1.473-0.115-2.074-0.348c-0.601-0.232-1.108-0.606-1.521-1.123c-0.414-0.516-0.729-1.187-0.944-2.014
				c-0.215-0.828-0.323-1.83-0.323-3.01c0-1.269,0.107-2.346,0.323-3.229s0.527-1.604,0.935-2.159
				c0.408-0.555,0.907-0.957,1.496-1.207c0.589-0.249,1.258-0.373,2.006-0.373c0.884,0,1.601,0.137,2.15,0.414
				c0.55,0.275,0.975,0.629,1.275,1.062c0.3,0.432,0.493,0.923,0.578,1.473c0.085,0.549,0.105,1.107,0.06,1.674H8.042
				C8.099,65.594,8.084,65.146,8,64.727s-0.232-0.784-0.442-1.097c-0.21-0.312-0.487-0.559-0.833-0.739s-0.751-0.272-1.216-0.272
				c-0.566,0-1.06,0.111-1.479,0.332s-0.768,0.561-1.045,1.02s-0.484,1.046-0.62,1.76C2.228,66.443,2.16,67.3,2.16,68.296
				c0,1.803,0.257,3.16,0.773,4.072c0.516,0.912,1.391,1.368,2.626,1.368c0.578,0,1.028-0.093,1.352-0.28
				c0.323-0.188,0.566-0.445,0.731-0.773c0.164-0.328,0.272-0.717,0.323-1.164c0.051-0.448,0.082-0.927,0.094-1.438l1.445,0.137
				C9.493,70.988,9.411,71.665,9.257,72.249z"/>
			<path d="M13.907,74.706V61.649h6.834v1.174h-5.44v4.59h4.981v1.172h-4.981v4.947h5.831v1.174H13.907z"/>
			<path d="M31.586,74.706l-5.253-10.982v10.982h-1.258V61.649h1.785l5.253,10.982V61.649h1.258v13.057H31.586z"/>
			<path d="M41.684,62.856v11.85H40.29v-11.85h-3.196v-1.207h7.735v1.207H41.684z"/>
			<path d="M55.369,74.706c-0.091-0.125-0.167-0.314-0.229-0.57c-0.062-0.255-0.093-0.563-0.093-0.926v-2.211
				c0-0.623-0.167-1.115-0.501-1.479c-0.334-0.362-0.858-0.544-1.573-0.544h-2.975v5.729h-1.394V61.649h4.199
				c1.303,0,2.264,0.314,2.881,0.945c0.618,0.63,0.927,1.603,0.927,2.919c0,0.478-0.051,0.886-0.153,1.226
				c-0.102,0.341-0.241,0.621-0.417,0.844c-0.176,0.221-0.389,0.394-0.638,0.519c-0.25,0.125-0.527,0.204-0.833,0.238
				c0.374,0.046,0.683,0.142,0.926,0.288c0.244,0.148,0.437,0.359,0.578,0.637s0.241,0.631,0.298,1.062
				c0.056,0.431,0.09,0.95,0.102,1.562c0,0.192,0.006,0.428,0.017,0.705s0.022,0.494,0.034,0.652
				c0.034,0.702,0.147,1.189,0.34,1.461H55.369z M55.166,65.525c0-0.918-0.218-1.598-0.652-2.04
				c-0.436-0.441-1.139-0.662-2.11-0.662h-2.406v4.98h2.609c0.508,0,0.926-0.051,1.253-0.153s0.59-0.252,0.788-0.45
				s0.333-0.439,0.407-0.723S55.166,65.877,55.166,65.525z"/>
			<path d="M60.962,74.706V61.649h6.834v1.174h-5.44v4.59h4.981v1.172h-4.981v4.947h5.831v1.174H60.962z"/>
		</g>
	</g>
	<g>
		<path fill="#00BBE3" d="M176.31,1.94c0,0-5.929-4.035-9.962-0.184c0,0-2.384,2.139-0.612,6.479l2.141,5.074
			c0,0,1.493,4.437-1.833,5.99c0,0-0.883,0.457-3.241-0.062L162.74,19.2c-0.022-0.173,0.034-0.551,0.034-0.551
			c1.562-11.516-7.721-12.326-7.721-12.326c-12.781-1.451-18.836,8.889-18.836,8.889c-3.379,6.115-0.715,10.445-0.715,10.445
			c1.919,2.782,6.963-0.358,6.963-0.358c11.962-6.07,16.828-3.838,16.828-3.838c-0.402,0.581-2.009,3.838-2.009,3.838
			c-0.491,0.849-2.454,0.812-2.454,0.812c-15.4,0.536-12.187,6.956-12.187,6.956c3.198,4.864,13.615-2.946,13.615-2.946
			c0.629-0.521,0.786-0.408,0.786-0.408c1.489,0.497,0.954,1.434,0.954,1.434c-2.366,4.107-2.099,6.25-2.099,6.25
			c0.49,3.348,3.928,1.965,3.928,1.965c2.381-1.132,2.812-2.769,2.812-2.769c1.979-6.249-4.129-9.718-4.129-9.718
			c1.272-1.656,1.629-2.468,1.629-2.468c1.408-2.732,2.275-2.651,2.275-2.651c2.947,0.242,7.41,1.536,7.41,1.536
			c1.283,0.313,2.232-0.133,2.232-0.133c1.384-0.669,1.517-2.411,1.517-2.411c0.112-0.837-0.491-1.027-0.491-1.027
			c-0.535-0.223-3.213,0.09-3.213,0.09c-1.652,0.089-1.205-0.804-1.205-0.804c1.026-1.785,3.268-3.927,3.268-3.927
			c1.34-1.378-0.277-3.425-0.277-3.425c-1.768-1.98-2.901-4.476-2.901-4.476c-1.033-3.2,1.474-4.463,1.474-4.463
			c1.707-1.145,4.369,2.281,4.369,2.281s0.664,0.787,1.04,0.244l0.978-1.833C176.616,3.407,177.136,2.447,176.31,1.94z
			 M155.247,28.32c0,0-3.482,5.922-9.612,4.107c0,0-2.2-0.773-0.357-2.529c0,0,3.288-3.303,9.56-2.38
			C154.837,27.517,155.693,27.666,155.247,28.32z M158.995,32.516c0,0,0.507-0.893,1.279,0c0,0,2.322,2.827-0.594,5.594
			c0,0-1.429,1.191-1.965-0.385C157.716,37.724,157.062,35.373,158.995,32.516z M146.855,21.952c0,0-4.464,2.321-7.559,2.559
			c0,0-1.853,0.253-2.144-1.667c0,0-1.545-6.963,4.764-11.604c0,0,14.162-9.999,18.924,6.487c0,0,0.106,0.583,0.118,1.061
			l0.001,0.188C160.96,18.977,153.698,18.679,146.855,21.952z"/>
	</g>
</g>
</svg>
